<?xml version="1.0" encoding="UTF-8" standalone="no"?>
<!DOCTYPE svg PUBLIC "-//W3C//DTD SVG 1.1//EN" "http://www.w3.org/Graphics/SVG/1.1/DTD/svg11.dtd">
<svg width="100%" height="100%" viewBox="0 0 519 47" version="1.1" xmlns="http://www.w3.org/2000/svg" xmlns:xlink="http://www.w3.org/1999/xlink" xml:space="preserve" xmlns:serif="http://www.serif.com/" style="fill-rule:evenodd;clip-rule:evenodd;stroke-linejoin:round;stroke-miterlimit:2;">
    <g id="Calque_1">
        <g>
            <g>
                <g>
                    <path d="M39.6,33.4L35,45.7L0,45.7L0,41.1C4.8,39.1 7.9,35.7 7.9,29.9L7.9,26.9C8,19.2 3.2,16.7 0,15.8L0,11.2L35.4,11.2L37.1,22.6L34.7,24.1C31.8,20.7 28.4,17.1 23.4,17.1L22.8,17.1C16.4,17.1 13.6,20 13.6,26.3L18.7,26.3C23.1,26.3 24.6,23.5 25.1,21.8L25.3,21L28.3,21L28.3,36L25.3,36L25.1,35.3C24.5,33.6 23.1,30.7 18.7,30.7L13.6,30.7C13.6,36.9 16,39.8 23.5,39.8L24,39.8C29.4,39.8 33.4,35.8 37.1,31.5L39.6,33.4ZM17.4,7.9L22.4,0.1L32.1,0.1L32.1,1.2L22.1,7.9L17.4,7.9Z" style="fill:white;fill-rule:nonzero;"/>
                    <path d="M72.8,10.4L74,21.5L69.9,22.5C67.3,19.1 62.5,17.3 57.4,17.3C53.2,17.3 49.7,18.6 49.7,21.1C49.7,23.2 52.1,24.2 57.3,24.9L62.3,25.5C70,26.5 76,28.6 76,35.5C76,42.4 69.8,46.6 61.6,46.6C57.2,46.6 53.4,45.4 49.4,43.2L48.2,45.8L43.5,45.8L41.1,32.6L45.2,31.1C48.7,36.4 54.3,40 61.3,40C65.4,40 68.9,38.7 68.9,35.9C68.9,33.2 65.7,32.5 61.2,32L55.2,31.3C51.8,30.9 42.4,29.4 42.4,21.2C42.4,14.2 49.2,10.7 56.6,10.7C60.6,10.7 63.7,11.7 66.1,13.1L66.9,10.5L72.8,10.5L72.8,10.4Z" style="fill:white;fill-rule:nonzero;"/>
                    <path d="M113.3,11.2L113.3,15.8C108.8,17.1 107.2,20.8 109.4,24.8L114,33.7C116.5,38.6 119,39.9 122.9,41.1L122.9,45.7L103,45.7L103,41.2L104.4,40.7C107.8,39.5 109.2,37.6 107.7,35L107.4,34.4L92.8,34.4L92.5,35C90.9,37.7 92.3,39.6 95.8,40.8L97.2,41.3L97.2,45.8L77.3,45.8L77.3,41.2C81.2,40 83.7,38.7 86.2,33.8L90.9,24.7C92.8,20.8 91.3,17.2 86.9,15.9L86.9,11.3L113.3,11.3L113.3,11.2ZM105.1,29.7L100.1,18.3L94.9,29.7L105.1,29.7Z" style="fill:white;fill-rule:nonzero;"/>
                    <path d="M166.4,28.2C166.4,36.9 160.4,45.7 147.6,45.7L125.5,45.7L125.5,41.1C130.6,39.3 132.9,35.5 132.9,30.4L132.9,26.7C132.9,20 130.6,17 125.5,15.8L125.5,11.2L148.7,11.2C160.6,11.2 166.4,19.7 166.4,28.2M138.4,26.5L138.4,30.3C138.4,38 142,39.9 149.1,39.9C156.7,39.9 160.5,33.5 160.5,28.4C160.5,23.3 156.9,17.2 149.4,17.2C142.4,17.1 138.4,19 138.4,26.5" style="fill:white;fill-rule:nonzero;"/>
                    <path d="M177.2,23.6C179.8,23.6 182,25.8 182,28.5C182,31.2 179.9,33.4 177.2,33.4C174.6,33.4 172.5,31.3 172.5,28.5C172.5,25.8 174.6,23.6 177.2,23.6" style="fill:white;fill-rule:nonzero;"/>
                    <path d="M224.1,21.9C224.1,28.4 219.3,32.6 212.6,32.6L199.2,32.6L199.2,32.7C199.2,36.6 202.3,39.6 207.2,41.1L207.2,45.7L186.3,45.7L186.3,41.1C189.1,40 193.6,38 193.6,28.8L193.6,27.8C193.6,18.7 189.1,16.8 186.3,15.7L186.3,11.1L211.8,11.1C220.2,11.2 224.1,16.5 224.1,21.9M218.4,22C218.4,18.7 215.5,17.1 211.5,17.1L209.2,17.1C201.9,17.1 199,19.2 199,26.5L199,27L211.6,27C215.6,27 218.4,25.4 218.4,22" style="fill:white;fill-rule:nonzero;"/>
                    <path d="M245.6,15.8C244.1,16.1 242.8,17.2 242.8,18.9C242.8,20.1 243.2,20.8 244.7,22.7L247.4,25.9C248.3,24.8 249.1,23.8 250,22.7C250.1,22.6 250.3,22.4 250.4,22.3C251.6,20.8 252.1,20 252.1,18.9C252.1,17.2 250.8,16.2 249.3,15.8L249.3,11.2L269.6,11.2L269.6,15.8C261.7,17.1 257.7,22.1 253.3,27.9L250.3,31.9L250.3,33.8C250.3,38.2 254.8,40.3 257.9,41.2L257.9,45.8L237.1,45.8L237.1,41.2C240.1,40.3 244.7,38.1 244.7,33.8L244.7,31.9L241.6,27.9C237,22 233.2,17.2 225.4,15.8L225.4,11.3L245.7,11.3L245.7,15.8L245.6,15.8Z" style="fill:white;fill-rule:nonzero;"/>
                    <path d="M293.3,31.7L285.6,31.7L285.6,31.9C285.6,36.8 288.7,39.8 293.5,41.1L293.5,45.7L272.6,45.7L272.6,41.1C275.4,40 280,38 280,28.8L280,27.8C280,18.7 275.5,16.8 272.6,15.7L272.6,11.1L297.3,11.1C306.2,11.1 310.4,16.2 310.4,21.6C310.4,26.8 306.7,31.4 298.9,31.6C300.9,35.2 302.7,37.5 306.5,37.5C308.7,37.5 309.8,36.7 310.4,36C310.6,35.8 311,35.4 311.2,35.4C311.6,35.4 311.8,36.4 311.9,37.8C312.1,41.8 310,46.2 305.4,46.2C298.8,46.4 295.3,36.8 293.3,31.7M285.6,26.3L298.3,26.3C302.6,26.3 304.8,24.5 304.8,21.8C304.8,19.1 302.3,17 297,17L295,17C288.2,17.1 285.6,19.4 285.6,26.3" style="fill:white;fill-rule:nonzero;"/>
                    <path d="M353.8,33.4L349.2,45.7L314.2,45.7L314.2,41.1C319,39.1 322.1,35.7 322.1,29.9L322.1,26.9C322.1,19.2 317.3,16.7 314.2,15.8L314.2,11.2L349.6,11.2L351.3,22.6L348.9,24.1C346,20.7 342.6,17.1 337.6,17.1L337,17.1C330.6,17.1 327.8,20 327.8,26.3L332.9,26.3C337.3,26.3 338.8,23.5 339.3,21.8L339.5,21L342.5,21L342.5,36L339.5,36L339.3,35.3C338.7,33.6 337.3,30.7 332.9,30.7L327.8,30.7C327.8,36.9 330.2,39.8 337.7,39.8L338.2,39.8C343.6,39.8 347.6,35.8 351.3,31.5L353.8,33.4ZM331.7,7.9L336.7,0.1L346.4,0.1L346.4,1.2L336.4,7.9L331.7,7.9Z" style="fill:white;fill-rule:nonzero;"/>
                    <path d="M385.5,29.1L385.5,27.9C385.5,23.3 385.2,18.6 378.5,15.7L378.5,11.3L398.4,11.3L398.4,15.8C392.8,17.9 391,21.1 391,27L391,29.9C391,35.5 392.4,41 395,45.8L383.2,45.8L383.2,43.6C383.2,37.2 378.5,32.2 374.3,27.9C372.3,25.8 370.1,23.5 367.7,20.3L367.7,29C367.7,35.7 369.1,38.7 374.8,41.1L374.8,45.7L355,45.7L355,41.1C360.7,38.9 362,35.7 362,29.8L362,26.9C362,21.4 360.6,17.5 355,15.7L355,11.1L371.4,11.1C372.2,15.5 374.6,19.1 377.7,22.7C379.8,25.1 381.9,27.6 384,30C384.1,30.1 384.2,30.2 384.3,30.3C384.7,30.8 385.2,31.2 385.4,31.7L385.4,31.6C385.6,30.9 385.5,29.9 385.5,29.1" style="fill:white;fill-rule:nonzero;"/>
                    <path d="M441.3,33.4L436.7,45.7L401.7,45.7L401.7,41.1C406.5,39.1 409.6,35.7 409.6,29.9L409.6,26.9C409.6,19.2 404.8,16.7 401.7,15.8L401.7,11.2L437.1,11.2L438.8,22.6L436.4,24.1C433.5,20.7 430.1,17.1 425.1,17.1L424.5,17.1C418.1,17.1 415.3,20 415.3,26.3L420.4,26.3C424.8,26.3 426.3,23.5 426.8,21.8L427,21L430,21L430,36L427,36L426.8,35.3C426.2,33.6 424.8,30.7 420.4,30.7L415.3,30.7C415.3,36.9 417.7,39.8 425.2,39.8L425.7,39.8C431.1,39.8 435.1,35.8 438.8,31.5L441.3,33.4ZM419.1,7.9L424.1,0.1L433.8,0.1L433.8,1.2L423.8,7.9L419.1,7.9Z" style="fill:white;fill-rule:nonzero;"/>
                    <path d="M482.2,33.4L477.6,45.7L442.6,45.7L442.6,41.1C447.4,39.1 450.5,35.7 450.5,29.9L450.5,26.9C450.5,19.2 445.7,16.7 442.6,15.8L442.6,11.2L478,11.2L479.7,22.6L477.3,24.1C474.4,20.7 471,17.1 466,17.1L465.4,17.1C459,17.1 456.2,20 456.2,26.3L461.3,26.3C465.7,26.3 467.2,23.5 467.7,21.8L467.9,21L470.9,21L470.9,36L467.9,36L467.7,35.3C467.1,33.6 465.7,30.7 461.3,30.7L456.2,30.7C456.2,36.9 458.6,39.8 466.1,39.8L466.6,39.8C472,39.8 476,35.8 479.7,31.5L482.2,33.4Z" style="fill:white;fill-rule:nonzero;"/>
                    <path d="M515.4,10.4L516.6,21.5L512.5,22.5C509.9,19.1 505.1,17.3 500,17.3C495.8,17.3 492.3,18.6 492.3,21.1C492.3,23.2 494.7,24.2 499.9,24.9L504.9,25.5C512.6,26.5 518.6,28.6 518.6,35.5C518.6,42.4 512.4,46.6 504.2,46.6C499.8,46.6 496,45.4 492,43.2L490.8,45.8L486.1,45.8L483.7,32.6L487.8,31.1C491.3,36.4 496.9,40 503.9,40C508,40 511.5,38.7 511.5,35.9C511.5,33.2 508.3,32.5 503.8,32L497.8,31.3C494.4,30.9 485,29.4 485,21.2C485,14.2 491.8,10.7 499.2,10.7C503.2,10.7 506.3,11.7 508.7,13.1L509.5,10.5L515.4,10.5L515.4,10.4Z" style="fill:white;fill-rule:nonzero;"/>
                </g>
            </g>
        </g>
    </g>
</svg>
